# File created by Blade
# Date/Time:  Tue Apr 07 20:49:23 2015
# Frame Rate: 120.000 fps
#------------------------------------------------------
:FULLY-SPECIFIED
:DEGREES
255
root 3.964831 33.199339 -8.049743 -66.111998 78.429451 -93.656998
Spine -16.138433 -15.578600 13.518833
Head 2.586284 6.829634 11.069059
LeftShoulder -18.751975 47.220701 14.057240
LeftArm 49.901520 -5.406001 -87.786508
LeftForeArm 8.133537 0.000000 32.370338
LeftHand 5.585409 -0.000000 11.261297
LeftHandThumb1 -26.253704 0.000000 33.147579
RightShoulder -14.013292 -15.904562 -11.183716
RightArm -5.789525 26.293251 80.604934
RightForeArm 53.612639 -0.000000 1.385737
RightHand 7.401002 -0.000000 4.908382
RightHandThumb1 -24.326973 -0.000000 -32.862282
LeftUpLeg -30.738224 -4.503035 9.908855
LeftLeg 13.149611 -0.000000 -0.000000
LeftFoot -9.262113 10.718677 -11.245754
LeftToeBase -12.152363 -0.000000 0.000000
RightUpLeg -26.822409 8.796629 -18.001382
RightLeg 110.578603 -0.000000 -0.000000
RightFoot 44.584143 8.100135 7.280557
RightToeBase 15.431587 -0.000000 -0.000000
256
root 3.998692 33.200880 -8.056227 -66.637732 78.254726 -94.296113
Spine -16.339629 -15.750148 13.790822
Head 2.692377 6.893636 11.260183
LeftShoulder -18.650700 47.253387 14.193566
LeftArm 49.880183 -5.242366 -87.653038
LeftForeArm 8.126721 -0.000000 32.288461
LeftHand 5.617435 -0.000000 11.199160
LeftHandThumb1 -26.253704 0.000000 33.147579
RightShoulder -14.146940 -15.989773 -11.075323
RightArm -6.173723 26.915935 80.181743
RightForeArm 53.999270 0.000000 1.493369
RightHand 7.477698 -0.000000 4.781963
RightHandThumb1 -24.326973 -0.000000 -32.862282
LeftUpLeg -30.888878 -4.428195 10.052548
LeftLeg 13.340259 -0.000000 -0.000000
LeftFoot -9.267744 10.680608 -11.025250
LeftToeBase -12.430179 -0.000000 0.000000
RightUpLeg -26.448804 9.461087 -18.383410
RightLeg 111.410631 -0.000000 -0.000000
RightFoot 44.881801 8.429883 7.238942
RightToeBase 16.756752 -0.000000 -0.000000
257
root 4.029663 33.201125 -8.064274 -67.061066 78.093466 -94.863761
Spine -16.575418 -15.908873 14.054102
Head 2.819981 6.968289 11.452629
LeftShoulder -18.565889 47.299189 14.318153
LeftArm 49.865010 -5.105565 -87.562477
LeftForeArm 8.238374 -0.000000 32.245358
LeftHand 5.668543 -0.000000 11.124850
LeftHandThumb1 -26.253704 0.000000 33.147579
RightShoulder -14.273830 -16.094233 -10.974760
RightArm -6.518910 27.476963 79.776735
RightForeArm 54.404188 0.000000 1.602785
RightHand 7.689988 -0.000000 4.696954
RightHandThumb1 -24.326973 -0.000000 -32.862282
LeftUpLeg -31.060113 -4.431647 10.204193
LeftLeg 13.484111 -0.000000 -0.000000
LeftFoot -9.253829 10.827591 -10.669092
LeftToeBase -12.719685 -0.000000 0.000000
RightUpLeg -26.101107 10.071786 -18.734795
RightLeg 112.246130 -0.000000 -0.000000
RightFoot 45.173401 8.982966 6.762430
RightToeBase 17.528661 -0.000000 -0.000000
258
root 4.048528 33.201174 -8.075881 -67.696234 77.917044 -95.737542
Spine -16.882171 -16.093790 14.415535
Head 2.875294 7.064649 11.566042
LeftShoulder -18.535050 47.343276 14.383025
LeftArm 49.897044 -4.958039 -87.469651
LeftForeArm 8.216435 -0.000000 32.218454
LeftHand 5.576735 -0.000000 11.083531
LeftHandThumb1 -26.253704 0.000000 33.147579
RightShoulder -14.398630 -16.206351 -10.938861
RightArm -6.840159 28.001774 79.424672
RightForeArm 54.898866 -0.000000 1.762206
RightHand 7.953773 -0.000000 4.623563
RightHandThumb1 -24.326973 -0.000000 -32.862282
LeftUpLeg -31.380754 -4.524796 10.397333
LeftLeg 13.667077 -0.000000 -0.000000
LeftFoot -9.210253 11.121854 -10.181909
LeftToeBase -13.016995 -0.000000 0.000000
RightUpLeg -25.868898 10.603667 -19.061871
RightLeg 113.068947 -0.000000 -0.000000
RightFoot 45.405711 9.066456 6.697425
RightToeBase 20.639211 -0.000000 -0.000000
259
root 4.074061 33.199313 -8.088586 -68.160985 77.774849 -96.380551
Spine -17.133867 -16.228499 14.696061
Head 2.948302 7.109445 11.677996
LeftShoulder -18.391576 47.349720 14.521860
LeftArm 49.845266 -4.839779 -87.392851
LeftForeArm 8.326878 -0.000000 32.232122
LeftHand 5.640030 -0.000000 11.157748
LeftHandThumb1 -26.253704 0.000000 33.147579
RightShoulder -14.561273 -16.352317 -10.877396
RightArm -7.166164 28.681569 79.047257
RightForeArm 55.148032 -0.000000 2.014714
RightHand 8.179796 -0.000000 4.600275
RightHandThumb1 -24.326973 -0.000000 -32.862282
LeftUpLeg -31.591544 -4.733224 10.579318
LeftLeg 13.772191 -0.000000 -0.000000
LeftFoot -9.163728 11.600951 -9.572503
LeftToeBase -13.372886 -0.000000 0.000000
RightUpLeg -25.566260 11.145998 -19.405850
RightLeg 113.856244 -0.000000 -0.000000
RightFoot 45.900596 9.347579 6.419679
RightToeBase 22.163950 -0.000000 -0.000000
260
root 4.089319 33.199137 -8.089351 -69.580622 77.462670 -98.075730
Spine -17.481260 -16.513090 15.284736
Head 2.976758 7.178145 11.737552
LeftShoulder -18.313357 47.342341 14.616827
LeftArm 49.816097 -4.715192 -87.339266
LeftForeArm 8.312162 -0.000000 32.232222
LeftHand 5.664449 0.000000 11.074821
LeftHandThumb1 -26.253704 0.000000 33.147579
RightShoulder -14.677988 -16.433301 -10.901094
RightArm -7.491434 29.199635 78.693324
RightForeArm 55.561110 -0.000000 2.226114
RightHand 8.403172 -0.000000 4.698525
RightHandThumb1 -24.326973 -0.000000 -32.862282
LeftUpLeg -31.967400 -5.065521 11.031600
LeftLeg 13.948357 -0.000000 -0.000000
LeftFoot -9.175241 12.040276 -9.068025
LeftToeBase -13.633930 -0.000000 0.000000
RightUpLeg -25.289877 11.572088 -19.455049
RightLeg 114.638695 -0.000000 -0.000000
RightFoot 46.482500 9.631173 6.523647
RightToeBase 23.376359 -0.000000 -0.000000
261
root 4.123121 33.193878 -8.101227 -70.081128 77.330528 -98.676903
Spine -17.665747 -16.704727 15.539216
Head 3.062441 7.258334 11.866979
LeftShoulder -18.290517 47.444122 14.642405
LeftArm 49.864343 -4.606584 -87.271850
LeftForeArm 8.291111 0.000000 32.253380
LeftHand 5.662076 -0.000000 11.164273
LeftHandThumb1 -26.253704 0.000000 33.147579
RightShoulder -14.767224 -16.508429 -10.844488
RightArm -7.835664 29.709197 78.255451
RightForeArm 55.879462 -0.000000 2.398335
RightHand 8.609220 -0.000000 4.848157
RightHandThumb1 -24.326973 -0.000000 -32.862282
LeftUpLeg -32.048318 -5.409674 11.233726
LeftLeg 13.983789 -0.000000 -0.000000
LeftFoot -9.200154 12.673535 -8.491595
LeftToeBase -13.830962 -0.000000 0.000000
RightUpLeg -24.881491 12.092812 -19.738630
RightLeg 115.380275 -0.000000 -0.000000
RightFoot 47.033528 9.644925 6.646374
RightToeBase 24.906145 -0.000000 -0.000000
262
root 4.159553 33.186771 -8.113335 -70.655544 77.191197 -99.303291
Spine -17.783746 -16.880629 15.783284
Head 3.095005 7.343475 11.993441
LeftShoulder -18.210172 47.467147 14.694885
LeftArm 49.836220 -4.539621 -87.213424
LeftForeArm 8.320380 -0.000000 32.333872
LeftHand 5.684009 -0.000000 11.120726
LeftHandThumb1 -26.253704 0.000000 33.147579
RightShoulder -14.897064 -16.500668 -10.788495
RightArm -8.233204 30.050187 77.784276
RightForeArm 56.330174 0.000000 2.555610
RightHand 8.882905 -0.000000 5.117958
RightHandThumb1 -24.326973 -0.000000 -32.862282
LeftUpLeg -32.052766 -5.788574 11.438242
LeftLeg 13.969782 -0.000000 -0.000000
LeftFoot -9.257825 13.387708 -7.728734
LeftToeBase -13.683320 -0.000000 0.000000
RightUpLeg -24.424967 12.594854 -19.965818
RightLeg 116.130239 -0.000000 -0.000000
RightFoot 47.521867 9.837975 6.686496
RightToeBase 25.064110 -0.000000 -0.000000
263
root 4.192357 33.177632 -8.129589 -71.059166 77.099555 -99.780866
Spine -17.920375 -17.052796 15.974397
Head 3.120642 7.466357 12.131120
LeftShoulder -18.167067 47.531456 14.739780
LeftArm 49.857503 -4.466862 -87.191546
LeftForeArm 8.375906 -0.000000 32.379950
LeftHand 5.700937 0.000000 11.158649
LeftHandThumb1 -26.253704 0.000000 33.147579
RightShoulder -14.994955 -16.532518 -10.753052
RightArm -8.550786 30.378905 77.360181
RightForeArm 56.807517 -0.000000 2.667304
RightHand 9.015833 -0.000000 5.664177
RightHandThumb1 -24.326973 -0.000000 -32.862282
LeftUpLeg -32.079393 -6.174916 11.598013
LeftLeg 13.946434 -0.000000 -0.000000
LeftFoot -9.277031 14.085549 -7.041115
LeftToeBase -13.631247 -0.000000 0.000000
RightUpLeg -24.002351 13.071849 -20.237721
RightLeg 116.869317 -0.000000 -0.000000
RightFoot 47.977675 10.034644 6.589822
RightToeBase 23.923239 -0.000000 -0.000000
264
root 4.221296 33.169739 -8.141666 -71.479774 76.955803 -100.297376
Spine -18.068327 -17.209249 16.229659
Head 3.128946 7.541618 12.234561
LeftShoulder -18.087618 47.506887 14.818461
LeftArm 49.799412 -4.417176 -87.183479
LeftForeArm 8.338927 0.000000 32.404962
LeftHand 5.718530 -0.000000 11.395719
LeftHandThumb1 -26.253704 0.000000 33.147579
RightShoulder -15.083918 -16.636664 -10.715195
RightArm -8.756533 30.649815 77.017784
RightForeArm 57.330805 0.000000 2.745130
RightHand 9.222146 -0.000000 5.946642
RightHandThumb1 -24.326973 -0.000000 -32.862282
LeftUpLeg -32.149873 -6.571028 11.837602
LeftLeg 13.956572 -0.000000 -0.000000
LeftFoot -9.292486 14.741355 -6.446062
LeftToeBase -13.715295 -0.000000 0.000000
RightUpLeg -23.612345 13.536382 -20.421117
RightLeg 117.590674 -0.000000 -0.000000
RightFoot 48.331948 10.104483 6.621116
RightToeBase 24.135785 -0.000000 -0.000000
265
root 4.248452 33.161289 -8.155387 -71.924842 76.819790 -100.847669
Spine -18.216708 -17.366424 16.481587
Head 3.103251 7.614536 12.346253
LeftShoulder -18.063438 47.556695 14.858058
LeftArm 49.855199 -4.357336 -87.208001
LeftForeArm 8.373966 -0.000000 32.402874
LeftHand 5.697464 -0.000000 11.363629
LeftHandThumb1 -26.253704 0.000000 33.147579
RightShoulder -15.171482 -16.683498 -10.687826
RightArm -8.999510 30.911275 76.654997
RightForeArm 57.799062 -0.000000 2.839711
RightHand 9.385671 0.000000 6.448699
RightHandThumb1 -24.326973 -0.000000 -32.862282
LeftUpLeg -32.229445 -7.014756 12.100880
LeftLeg 13.961686 -0.000000 -0.000000
LeftFoot -9.318805 15.389991 -5.846921
LeftToeBase -13.681378 -0.000000 0.000000
RightUpLeg -23.244870 13.949301 -20.585695
RightLeg 118.315019 -0.000000 -0.000000
RightFoot 48.507020 10.163099 6.677390
RightToeBase 26.790132 -0.000000 -0.000000
266
root 4.272496 33.152891 -8.169277 -72.241252 76.708451 -101.289632
Spine -18.377207 -17.502343 16.694126
Head 3.065851 7.657880 12.464568
LeftShoulder -18.025999 47.542202 14.926603
LeftArm 49.844322 -4.304714 -87.214645
LeftForeArm 8.490032 -0.000000 32.402382
LeftHand 5.760320 -0.000000 11.620527
LeftHandThumb1 -26.253704 0.000000 33.147579
RightShoulder -15.238096 -16.729674 -10.659442
RightArm -9.258187 31.310627 76.286325
RightForeArm 58.271910 0.000000 2.972686
RightHand 9.582606 0.000000 6.778501
RightHandThumb1 -24.326973 -0.000000 -32.862282
LeftUpLeg -32.341882 -7.435616 12.344794
LeftLeg 13.981460 -0.000000 -0.000000
LeftFoot -9.311315 15.969000 -5.304359
LeftToeBase -13.735569 -0.000000 0.000000
RightUpLeg -22.935890 14.328898 -20.769715
RightLeg 119.017759 -0.000000 -0.000000
RightFoot 48.646051 10.141989 6.700034
RightToeBase 28.064642 -0.000000 -0.000000
267
root 4.297228 33.145287 -8.181074 -72.611231 76.596278 -101.784321
Spine -18.536712 -17.618744 16.893418
Head 3.029240 7.696890 12.599629
LeftShoulder -17.944809 47.537253 15.023122
LeftArm 49.846936 -4.259914 -87.213837
LeftForeArm 8.506702 -0.000000 32.408461
LeftHand 5.797533 -0.000000 11.541665
LeftHandThumb1 -26.253704 0.000000 33.147579
RightShoulder -15.346751 -16.763753 -10.607741
RightArm -9.536082 31.737843 75.898704
RightForeArm 58.738300 -0.000000 3.113662
RightHand 9.710265 -0.000000 7.268206
RightHandThumb1 -24.326973 -0.000000 -32.862282
LeftUpLeg -32.475431 -7.851160 12.605380
LeftLeg 14.037727 -0.000000 -0.000000
LeftFoot -9.311746 16.472198 -4.785695
LeftToeBase -13.712189 -0.000000 0.000000
RightUpLeg -22.609449 14.662381 -20.912982
RightLeg 119.669419 -0.000000 -0.000000
RightFoot 48.753467 10.137451 6.632813
RightToeBase 28.698641 -0.000000 -0.000000
